<?xml version="1.0" encoding="UTF-8"?>
<svg xmlns="http://www.w3.org/2000/svg" xmlns:xlink="http://www.w3.org/1999/xlink" width="1846pt" height="461.96pt" viewBox="0 0 1846 461.96" version="1.1">
<defs>
<clipPath id="clip1">
  <path d="M 1526 394 L 1616 394 L 1616 461.960938 L 1526 461.960938 Z M 1526 394 "/>
</clipPath>
<clipPath id="clip2">
  <path d="M 1615 366 L 1683 366 L 1683 461.960938 L 1615 461.960938 Z M 1615 366 "/>
</clipPath>
<clipPath id="clip3">
  <path d="M 1615 394 L 1683 394 L 1683 461.960938 L 1615 461.960938 Z M 1615 394 "/>
</clipPath>
</defs>
<g id="surface1">
<path style=" stroke:none;fill-rule:nonzero;fill:rgb(0%,32.499695%,50.19989%);fill-opacity:1;" d="M 883.902344 178.5625 C 878.066406 165.230469 863.304688 156.558594 846.488281 156.558594 C 836.695313 156.558594 826.390625 159 817.132813 164.3125 C 810.605469 168.015625 805.804688 172.050781 796.699219 179.453125 C 796.699219 169.890625 794.988281 163.070313 791.210938 155.613281 L 791.046875 155.679688 L 766.667969 171.066406 C 768.890625 178.585938 769.757813 186.082031 769.757813 199.925781 L 769.757813 315.433594 L 798.589844 315.433594 L 798.589844 200.535156 C 809.226563 189.414063 826.390625 180.707031 837.726563 180.707031 C 844.941406 180.707031 850.613281 182.890625 853.867188 186.925781 C 857.648438 191.851563 858.847656 196.832031 858.847656 210.765625 L 858.847656 315.433594 L 887.695313 315.433594 L 887.695313 198.035156 C 887.695313 190.921875 886.300781 184.089844 883.902344 178.5625 "/>
<path style=" stroke:none;fill-rule:nonzero;fill:rgb(0%,32.499695%,50.19989%);fill-opacity:1;" d="M 1316.691406 155.3125 C 1299.859375 155.3125 1286.308594 164.304688 1273.601563 182.28125 L 1273.601563 179.460938 C 1273.601563 171.734375 1271.179688 161.53125 1268.300781 155.621094 L 1267.929688 155.710938 L 1243.050781 171.414063 C 1245.109375 178.964844 1246.128906 187.992188 1246.128906 201.460938 L 1246.128906 315.425781 L 1275.320313 315.425781 L 1275.320313 215.394531 C 1275.320313 198.371094 1290.429688 183.789063 1308.109375 183.789063 C 1311.210938 183.789063 1313.441406 184.441406 1316.351563 185.347656 L 1326.488281 156.859375 C 1323.890625 155.914063 1320.460938 155.3125 1316.691406 155.3125 "/>
<path style=" stroke:none;fill-rule:nonzero;fill:rgb(0%,32.499695%,50.19989%);fill-opacity:1;" d="M 1146.730469 176.980469 C 1156.691406 176.980469 1164.429688 181.644531 1169.398438 187.824219 C 1175.769531 195.5625 1179.191406 207.949219 1179.191406 222.835938 L 1113.429688 222.835938 C 1113.429688 194.640625 1124.601563 176.980469 1146.730469 176.980469 M 1209.570313 243.894531 L 1209.570313 238.964844 C 1209.21875 203.300781 1204.238281 185.972656 1190.339844 172.039063 C 1179.191406 160.894531 1164.941406 155.3125 1147.238281 155.3125 C 1127.691406 155.3125 1112.210938 162.132813 1099.519531 176.675781 C 1085.96875 192.496094 1080.660156 209.835938 1080.660156 236.765625 C 1080.660156 287.550781 1107.410156 318.824219 1151.378906 318.824219 C 1170.261719 318.824219 1187.589844 313.320313 1202.371094 302.03125 L 1191.539063 284.867188 C 1181.070313 292.863281 1169.558594 296.847656 1156.179688 296.847656 C 1141.070313 296.847656 1128.019531 290.933594 1119.800781 278.574219 C 1115.148438 271.128906 1113.25 260.902344 1113.25 247.621094 L 1113.25 243.894531 "/>
<path style=" stroke:none;fill-rule:nonzero;fill:rgb(0%,32.499695%,50.19989%);fill-opacity:1;" d="M 572.007813 295.328125 C 568.890625 292.480469 567.882813 288.804688 567.882813 272.382813 L 567.882813 132.722656 C 567.882813 113.492188 567.882813 98.644531 565.121094 88.429688 L 564.433594 88.570313 L 536.621094 106.0625 C 537.835938 114.527344 538.179688 124.207031 538.179688 139.1875 L 538.179688 279.800781 C 538.179688 294.980469 539.546875 300.242188 544.183594 306.769531 C 550.015625 314.914063 557.054688 318.324219 567.882813 318.515625 L 581.097656 297.589844 C 577.828125 298.238281 573.882813 297.320313 572.007813 295.328125 "/>
<path style=" stroke:none;fill-rule:nonzero;fill:rgb(0%,32.499695%,50.19989%);fill-opacity:1;" d="M 955.855469 207.945313 C 955.855469 188.164063 965.96875 178.242188 984.691406 178.242188 C 1004.601563 178.242188 1013.691406 187.515625 1013.691406 207.332031 C 1013.691406 226.535156 1003.910156 236.765625 984.855469 236.765625 C 966.316406 236.765625 955.855469 227.199219 955.855469 207.945313 M 999.796875 281.074219 L 975.40625 281.074219 C 967.859375 281.074219 964.078125 277.933594 964.078125 273.308594 C 964.078125 266.515625 979.199219 259.367188 988.96875 256.289063 C 1030.339844 256.289063 1045.96875 230.585938 1045.96875 208.277344 C 1045.96875 198.367188 1042.710938 190.015625 1034.460938 179.800781 C 1042.179688 181.945313 1043.398438 182.277344 1048.03125 182.277344 C 1057.96875 182.277344 1065.53125 179.800781 1074.289063 172.933594 L 1059.53125 155.3125 C 1050.949219 161.195313 1043.050781 164.3125 1033.601563 164.3125 C 1026.570313 164.3125 1018.148438 161.835938 1009.921875 159.332031 C 1000.488281 156.5625 993.769531 155.910156 985.203125 155.910156 C 948.960938 155.910156 924.597656 176.675781 924.597656 207.945313 C 924.597656 229.359375 937.46875 245.433594 961.859375 252.574219 C 943.828125 259.058594 930.945313 265.242188 930.945313 279.796875 C 930.945313 291.238281 939.179688 299.015625 953.097656 300.546875 C 958.933594 301.199219 971.628906 302.09375 982.789063 302.09375 C 1014.03125 302.09375 1026.230469 310.800781 1026.230469 325.636719 C 1026.230469 342.058594 1013.359375 352.289063 987.4375 352.289063 C 984.855469 352.289063 982.632813 352.199219 980.21875 351.996094 L 964.425781 371.886719 C 972.164063 373.242188 980.730469 373.96875 990.335938 373.96875 C 1028.808594 373.96875 1056.949219 357.257813 1056.949219 323.785156 C 1056.949219 299.613281 1040.148438 281.074219 999.796875 281.074219 "/>
<path style=" stroke:none;fill-rule:nonzero;fill:rgb(0%,32.499695%,50.19989%);fill-opacity:1;" d="M 495.273438 295.328125 C 492.171875 292.480469 491.136719 288.804688 491.136719 272.382813 L 491.136719 132.722656 C 491.136719 113.492188 491.136719 98.644531 488.390625 88.429688 L 486.679688 88.722656 L 459.902344 105.691406 C 460.925781 114.273438 461.449219 123.976563 461.449219 139.1875 L 461.449219 279.800781 C 461.449219 294.980469 462.816406 300.242188 467.449219 306.769531 C 473.117188 314.710938 479.988281 318.144531 490.445313 318.492188 L 503.484375 297.765625 C 500.421875 298.085938 496.972656 297.128906 495.273438 295.328125 "/>
<path style=" stroke:none;fill-rule:nonzero;fill:rgb(0%,32.499695%,50.19989%);fill-opacity:1;" d="M 262.132813 179.804688 C 257.328125 165.871094 241.023438 156.550781 222.304688 156.550781 C 210.644531 156.550781 199.652344 159.640625 187.800781 167.058594 C 181.621094 171.09375 178.007813 173.585938 171.152344 179.804688 C 171.839844 171.746094 172.019531 164.609375 172.019531 159.003906 L 172.019531 124.335938 C 172.019531 109.152344 170.804688 97.710938 168.585938 88.425781 L 167.039063 88.734375 L 141.28125 105 C 142.140625 111.371094 142.660156 118.511719 142.660156 126.824219 L 142.660156 315.425781 L 172.019531 315.425781 L 172.019531 203.949219 C 184.367188 190.019531 200.507813 181.347656 214.066406 181.347656 C 221.628906 181.347656 228.664063 184.09375 231.40625 187.222656 C 234.664063 190.644531 236.898438 198.039063 236.898438 208.890625 L 236.898438 315.425781 L 265.234375 315.425781 L 265.234375 204.867188 C 265.234375 190.925781 264.722656 186.929688 262.132813 179.804688 "/>
<path style=" stroke:none;fill-rule:nonzero;fill:rgb(0%,32.499695%,50.19989%);fill-opacity:1;" d="M 67.472656 296.851563 C 58.367188 296.851563 50.464844 293.429688 44.792969 287.554688 C 36.570313 278.882813 32.113281 264.648438 32.113281 242.9375 C 32.113281 221.589844 34.335938 206.101563 39.660156 195.566406 C 45.152344 185.03125 55.445313 178.863281 67.472656 178.863281 C 77.417969 178.863281 84.621094 181.851563 94.761719 190.382813 L 107.976563 169.285156 C 96.648438 159.851563 83.421875 154.996094 67.472656 154.996094 C 52.007813 154.996094 38.117188 160.589844 26.445313 170.792969 C 11.328125 184.085938 0 204.246094 0 239.261719 C 0 262.769531 4.621094 280.746094 15.105469 295.328125 C 26.089844 310.808594 43.261719 318.519531 65.914063 318.519531 C 85.324219 318.519531 98.195313 313.425781 112.613281 300.246094 L 100.25 280.8125 C 90.816406 291.28125 79.144531 296.851563 67.472656 296.851563 "/>
<path style=" stroke:none;fill-rule:nonzero;fill:rgb(0%,32.499695%,50.19989%);fill-opacity:1;" d="M 387.617188 278.886719 C 380.238281 291.246094 367.710938 299.316406 354.316406 299.316406 C 338.175781 299.316406 329.429688 289.40625 329.429688 272.386719 C 329.429688 262.171875 331.664063 256.613281 337.664063 249.757813 C 344.011719 242.648438 357.226563 238.613281 379.039063 238.613281 C 381.617188 238.613281 384.03125 238.957031 388.472656 239.265625 Z M 416.632813 265.234375 C 416.632813 242.648438 417.84375 218.832031 417.84375 207.644531 C 417.84375 192.488281 417.152344 187.214844 414.742188 180.398438 C 408.738281 163.976563 391.910156 155.613281 368.910156 155.613281 C 340.769531 155.613281 321.539063 165.496094 306.597656 173.820313 L 319.289063 194.070313 C 331.996094 185.582031 349.171875 178.863281 364.453125 178.863281 C 386.585938 178.863281 389.164063 191.238281 389.164063 209.523438 L 389.164063 219.75 C 385.039063 219.445313 381.808594 219.445313 378.003906 219.445313 C 326.851563 219.445313 297.507813 238.613281 297.507813 274.542969 C 297.507813 304.308594 317.070313 320.054688 348.660156 320.054688 C 376.125 320.054688 389.519531 304.589844 393.621094 299.609375 C 397.414063 310.464844 404.960938 318.214844 414.742188 321.90625 L 414.921875 321.738281 L 427.613281 301.5 C 417.152344 294.296875 416.632813 285.449219 416.632813 265.234375 "/>
<path style=" stroke:none;fill-rule:nonzero;fill:rgb(0%,32.499695%,50.19989%);fill-opacity:1;" d="M 670.359375 176.980469 C 680.320313 176.980469 688.03125 181.644531 693.023438 187.824219 C 699.371094 195.5625 702.792969 207.949219 702.792969 222.835938 L 637.046875 222.835938 C 637.046875 194.640625 648.203125 176.980469 670.359375 176.980469 M 733.195313 243.894531 L 733.195313 238.964844 C 732.839844 203.300781 727.707031 185.972656 713.789063 172.039063 C 702.792969 160.894531 688.542969 155.3125 670.871094 155.3125 C 651.296875 155.3125 635.84375 162.132813 623.152344 176.675781 C 609.589844 192.496094 604.265625 209.835938 604.265625 236.765625 C 604.265625 287.550781 631.042969 318.824219 675.007813 318.824219 C 693.714844 318.824219 710.695313 313.445313 725.292969 302.464844 L 714.476563 285.289063 C 704.171875 293.003906 692.847656 296.847656 679.808594 296.847656 C 664.523438 296.847656 651.652344 290.933594 643.402344 278.574219 C 638.601563 271.128906 636.714844 260.902344 636.714844 247.621094 L 636.714844 243.894531 "/>
<g clip-path="url(#clip1)" clip-rule="nonzero">
<path style=" stroke:none;fill-rule:nonzero;fill:rgb(11.799622%,46.699524%,62.399292%);fill-opacity:1;" d="M 1526.359375 444.53125 L 1547.359375 394.371094 L 1615.039063 461.933594 C 1614.03125 461.945313 1613.019531 461.960938 1612.011719 461.960938 C 1578.941406 461.960938 1550.121094 454.554688 1526.359375 444.53125 "/>
</g>
<path style=" stroke:none;fill-rule:nonzero;fill:rgb(32.199097%,60.398865%,77.999878%);fill-opacity:1;" d="M 1710.671875 135.328125 L 1778.230469 119.890625 L 1778.230469 163.417969 "/>
<g clip-path="url(#clip2)" clip-rule="nonzero">
<path style=" stroke:none;fill-rule:nonzero;fill:rgb(0%,32.499695%,50.19989%);fill-opacity:1;" d="M 1615.039063 366.292969 L 1682.589844 394.371094 L 1615.039063 461.933594 "/>
</g>
<g clip-path="url(#clip3)" clip-rule="nonzero">
<path style=" stroke:none;fill-rule:nonzero;fill:rgb(0%,45.098877%,67.498779%);fill-opacity:1;" d="M 1682.589844 394.375 L 1682.589844 394.375 M 1682.589844 394.375 L 1675.511719 453.917969 C 1656.230469 459.152344 1635.921875 461.9375 1615.039063 461.9375 L 1682.589844 394.375 "/>
</g>
<path style=" stroke:none;fill-rule:nonzero;fill:rgb(14.498901%,54.499817%,75.299072%);fill-opacity:1;" d="M 1682.589844 394.375 L 1778.328125 394.375 C 1756.980469 415.625 1731.558594 432.796875 1703.359375 444.40625 L 1682.589844 394.375 "/>
<path style=" stroke:none;fill-rule:nonzero;fill:rgb(14.498901%,54.499817%,75.299072%);fill-opacity:1;" d="M 1526.601563 17.53125 C 1553.859375 6.257813 1583.691406 0 1615.050781 0 L 1547.371094 67.664063 L 1526.601563 17.53125 "/>
<path style=" stroke:none;fill-rule:nonzero;fill:rgb(0%,45.098877%,67.498779%);fill-opacity:1;" d="M 1451.609375 67.660156 C 1472.859375 46.425781 1498.269531 29.351563 1526.46875 17.644531 L 1526.601563 17.527344 L 1547.359375 67.660156 L 1451.609375 67.660156 "/>
<path style=" stroke:none;fill-rule:nonzero;fill:rgb(0%,45.098877%,67.498779%);fill-opacity:1;" d="M 1401.53125 319.386719 C 1413.230469 347.621094 1430.378906 373.070313 1451.660156 394.332031 L 1451.660156 298.664063 "/>
<path style=" stroke:none;fill-rule:nonzero;fill:rgb(0%,32.499695%,50.19989%);fill-opacity:1;" d="M 1401.570313 142.515625 L 1402.398438 142.988281 L 1451.601563 163.421875 L 1384.050781 230.96875 C 1384.050781 199.734375 1390.21875 169.804688 1401.570313 142.515625 "/>
<path style=" stroke:none;fill-rule:nonzero;fill:rgb(11.799622%,46.699524%,62.399292%);fill-opacity:1;" d="M 1451.609375 163.414063 L 1408.78125 126.867188 C 1419.929688 104.917969 1434.429688 84.960938 1451.609375 67.65625 L 1451.609375 163.414063 "/>
<path style=" stroke:none;fill-rule:nonzero;fill:rgb(32.199097%,60.398865%,77.999878%);fill-opacity:1;" d="M 1778.339844 298.617188 L 1846 230.96875 C 1846 262.304688 1839.511719 292.820313 1828.25 320.097656 L 1778.339844 298.617188 "/>
<path style=" stroke:none;fill-rule:nonzero;fill:rgb(0%,45.098877%,67.498779%);fill-opacity:1;" d="M 1615.039063 0 L 1665.761719 50.835938 L 1615.039063 95.746094 "/>
<path style=" stroke:none;fill-rule:nonzero;fill:rgb(0%,32.499695%,50.19989%);fill-opacity:1;" d="M 1703.359375 17.53125 L 1682.578125 67.664063 L 1615.050781 95.742188 "/>
<path style=" stroke:none;fill-rule:nonzero;fill:rgb(0%,32.499695%,50.19989%);fill-opacity:1;" d="M 1519.308594 135.328125 L 1451.671875 67.6875 L 1451.601563 113.554688 "/>
<path style=" stroke:none;fill-rule:nonzero;fill:rgb(0%,45.098877%,67.498779%);fill-opacity:1;" d="M 1710.660156 326.679688 L 1778.300781 394.332031 L 1778.300781 298.664063 "/>
<path style=" stroke:none;fill-rule:nonzero;fill:rgb(75.698853%,79.998779%,13.299561%);fill-opacity:1;" d="M 1384.050781 230.972656 L 1479.691406 230.972656 L 1451.609375 298.625 "/>
<path style=" stroke:none;fill-rule:nonzero;fill:rgb(0%,32.499695%,50.19989%);fill-opacity:1;" d="M 1662.871094 346.445313 L 1633.140625 275.066406 L 1703.828125 343.203125 L 1682.710938 394.253906 L 1682.578125 394.378906 "/>
<path style=" stroke:none;fill-rule:nonzero;fill:rgb(0%,45.098877%,67.498779%);fill-opacity:1;" d="M 1730.488281 183.179688 L 1778.308594 163.347656 L 1710.660156 135.320313 "/>
<path style=" stroke:none;fill-rule:nonzero;fill:rgb(75.698853%,79.998779%,13.299561%);fill-opacity:1;" d="M 1547.371094 67.660156 L 1567.101563 115.480469 L 1519.28125 135.324219 "/>
<path style=" stroke:none;fill-rule:nonzero;fill:rgb(32.199097%,60.398865%,77.999878%);fill-opacity:1;" d="M 1615.039063 366.292969 L 1662.859375 346.449219 L 1682.589844 394.371094 "/>
<path style=" stroke:none;fill-rule:nonzero;fill:rgb(0%,40.39917%,60.798645%);fill-opacity:1;" d="M 1615.039063 366.292969 L 1682.589844 394.371094 "/>
<path style=" stroke:none;fill-rule:nonzero;fill:rgb(0%,45.098877%,67.498779%);fill-opacity:1;" d="M 1499.488281 278.84375 L 1451.671875 298.660156 L 1519.308594 326.675781 "/>
<path style=" stroke:none;fill-rule:nonzero;fill:rgb(0%,50.19989%,71.798706%);fill-opacity:1;" d="M 1567.230469 115.480469 L 1591.128906 105.609375 L 1596.230469 185.46875 "/>
<path style=" stroke:none;fill-rule:nonzero;fill:rgb(0%,32.499695%,50.19989%);fill-opacity:1;" d="M 1547.371094 67.660156 L 1615.050781 95.753906 L 1567.21875 115.480469 "/>
<path style=" stroke:none;fill-rule:nonzero;fill:rgb(14.498901%,54.499817%,75.299072%);fill-opacity:1;" d="M 1567.101563 346.445313 L 1615.050781 366.289063 L 1547.371094 394.378906 "/>
<path style=" stroke:none;fill-rule:nonzero;fill:rgb(75.698853%,79.998779%,13.299561%);fill-opacity:1;" d="M 1662.871094 115.480469 L 1682.578125 67.660156 L 1682.710938 67.660156 L 1710.679688 135.324219 Z M 1662.871094 115.480469 "/>
<path style=" stroke:none;fill-rule:nonzero;fill:rgb(75.698853%,79.998779%,13.299561%);fill-opacity:1;" d="M 1730.488281 278.84375 L 1778.308594 298.648438 L 1750.289063 231.007813 "/>
<path style=" stroke:none;fill-rule:nonzero;fill:rgb(75.698853%,79.998779%,13.299561%);fill-opacity:1;" d="M 1499.488281 183.179688 L 1519.308594 135.320313 L 1451.671875 163.347656 L 1451.671875 163.375 Z M 1499.488281 183.179688 "/>
<path style=" stroke:none;fill-rule:nonzero;fill:rgb(14.498901%,54.499817%,75.299072%);fill-opacity:1;" d="M 1615.039063 95.75 L 1682.589844 67.65625 L 1662.859375 115.476563 "/>
<path style=" stroke:none;fill-rule:nonzero;fill:rgb(8.999634%,52.198792%,58.799744%);fill-opacity:1;" d="M 1662.871094 115.480469 L 1682.578125 67.660156 "/>
<path style=" stroke:none;fill-rule:nonzero;fill:rgb(75.698853%,79.998779%,13.299561%);fill-opacity:1;" d="M 1567.140625 346.507813 L 1519.308594 326.675781 L 1547.339844 394.328125 "/>
<path style=" stroke:none;fill-rule:nonzero;fill:rgb(75.698853%,79.998779%,13.299561%);fill-opacity:1;" d="M 1499.488281 278.84375 L 1519.308594 326.675781 L 1572.058594 248.796875 "/>
<path style=" stroke:none;fill-rule:nonzero;fill:rgb(0%,32.499695%,50.19989%);fill-opacity:1;" d="M 1468.210938 203.21875 L 1451.609375 163.417969 L 1499.429688 183.144531 L 1488.308594 210.140625 Z M 1468.210938 203.21875 "/>
<path style=" stroke:none;fill-rule:nonzero;fill:rgb(0%,50.19989%,71.798706%);fill-opacity:1;" d="M 1479.691406 230.972656 L 1468.210938 203.226563 L 1488.289063 210.199219 L 1488.308594 210.132813 L 1548.75 230.972656 "/>
<path style=" stroke:none;fill-rule:nonzero;fill:rgb(0%,43.099976%,65.499878%);fill-opacity:1;" d="M 1468.210938 203.21875 L 1488.308594 210.140625 L 1488.28125 210.191406 "/>
<path style=" stroke:none;fill-rule:nonzero;fill:rgb(0%,32.499695%,50.19989%);fill-opacity:1;" d="M 1519.308594 326.679688 L 1567.140625 346.511719 L 1597.578125 273.136719 "/>
<path style=" stroke:none;fill-rule:nonzero;fill:rgb(0%,32.499695%,50.19989%);fill-opacity:1;" d="M 1659.128906 212.722656 L 1750.289063 231.007813 L 1730.480469 183.175781 "/>
<path style=" stroke:none;fill-rule:nonzero;fill:rgb(0%,45.098877%,67.498779%);fill-opacity:1;" d="M 1634.421875 184.535156 L 1648.398438 150.617188 L 1710.660156 135.257813 "/>
<path style=" stroke:none;fill-rule:nonzero;fill:rgb(75.698853%,79.998779%,13.299561%);fill-opacity:1;" d="M 1845.960938 230.996094 L 1778.308594 163.371094 L 1760.351563 206.757813 "/>
<path style=" stroke:none;fill-rule:nonzero;fill:rgb(0%,32.499695%,50.19989%);fill-opacity:1;" d="M 1760.351563 206.753906 L 1750.269531 231.003906 L 1845.949219 231.003906 L 1845.949219 230.988281 Z M 1760.351563 206.753906 "/>
<path style=" stroke:none;fill-rule:nonzero;fill:rgb(0%,32.499695%,50.19989%);fill-opacity:1;" d="M 1526.410156 444.488281 C 1486.148438 427.503906 1460.121094 403.066406 1451.46875 394.140625 L 1547.328125 394.316406 "/>
<path style=" stroke:none;fill-rule:nonzero;fill:rgb(32.199097%,60.398865%,77.999878%);fill-opacity:1;" d="M 1703.359375 17.640625 C 1703.359375 17.640625 1736.558594 26.117188 1778.339844 67.65625 L 1703.359375 67.769531 L 1703.359375 17.640625 "/>
<path style=" stroke:none;fill-rule:nonzero;fill:rgb(0%,45.098877%,67.498779%);fill-opacity:1;" d="M 1828.558594 142.867188 C 1816.851563 114.519531 1799.648438 89.03125 1778.308594 67.695313 L 1778.230469 163.539063 "/>
</g>
</svg>
